# xmcd
#
# Track frame offsets: 
#        150
#        15480
#        30415
#        47577
#        63892
#        76320
#        91460
#        114812
#        131775
#        146182
#        162220
#        172213
#
# Disc length: 2576 seconds
#
# Revision: 3
# Processed by: cddbd v1.5.2PL0 Copyright (c) Steve Scherf et al.
# Submitted via: ExactAudioCopy v0.99pb5
#
DISCID=960a0e0c
DTITLE=Trisha Yearwood - Jasper County
DYEAR=2006
DGENRE=Country
TTITLE0=Who Invented The Wheel
TTITLE1=Pistol
TTITLE2=Trying To Love You
TTITLE3=River Of You
TTITLE4=Baby Don't You Let Go
TTITLE5=Standing Out In A Crowd
TTITLE6=Georgia Rain
TTITLE7=Sweet Love
TTITLE8=Try Me
TTITLE9=Gimme The Good Stuff
TTITLE10=It's Alright
TTITLE11=Love Will Always Win (with Garth Brooks)
EXTD=
EXTT0=
EXTT1=
EXTT2=
EXTT3=
EXTT4=
EXTT5=
EXTT6=
EXTT7=
EXTT8=
EXTT9=
EXTT10=
EXTT11=
PLAYORDER=
